<svg version="1.1" baseProfile="tiny" xmlns="http://www.w3.org/2000/svg" xmlns:xlink="http://www.w3.org/1999/xlink" x="0px" y="0px" viewBox="0 0 495.5 559.1" overflow="visible" xml:space="preserve">

    <linearGradient id="XMLID_2_" gradientUnits="userSpaceOnUse" x1="247.7576" y1="26.8074" x2="247.7576" y2="535.2255">
        <stop  offset="0" style="stop-color:#FCC00E"/>
        <stop  offset="1" style="stop-color:#5A4394"/>
    </linearGradient>
    
    <path fill="url(#XMLID_2_)" d="M488.5,47.2c-4.7-6-10.1-8.9-16.9-11.7C436.2,20.9,399.4,12,361.7,6.1
        C330.5,1.3,299-1.7,267.5,1C228,4.4,191,14.7,155.4,32.1c-50.3,24.5-93,62-120.5,111.1C12.8,183.4,1.2,228.2,0,274
        c-0.3,13,8.4,24.9,20,29.8c12.5,5.3,24.7,2.1,34.8-6.1c0.8-0.5,1.7-1.1,2.5-1.6c1.2-0.7,2.4-1.4,3.6-2c2.2-0.7,4.5-1.3,6.8-1.8
        c0.3,4.8,1.1,9.7,3,14.5c2.2,5.6,4,11.2,5.2,17c1.2,15.7-0.4,32-2.4,47.6c-2,14.3-4.6,28.6-7.2,42.8c-2.1,11.7-0.4,23,8.4,31.7
        c4.1,4,8.9,6.8,14.4,8.4c5.8,1.6,11.6,1.6,17.3,0c33.8-4.8,67.6-10.1,101.5-14.8c2.5,5.6,4.9,11.5,8.6,16.3
        c4.9,6.3,12.6,11.1,19.2,15.8c4,2.9,8.1,5.8,12.2,8.5c19.3,13,39.5,24.8,60.4,35c38.2,18.7,78.5,33.4,119.9,42.9
        c11.5,2.6,23.2,0.1,31.7-8.4c7.7-7.7,12.4-21.1,8.4-31.7c-4.7-12.4-9.2-24.9-14-37.3c-2.7-6.9-4.1-9.4-9-15.1
        c-1.4-1.6-2.8-3.2-4.2-4.9c-1.9-2.3-3.9-4.5-5.7-6.8c-0.8-1-1.6-2.1-2.3-3.1c-1.4-1.9-2.8-3.8-4.1-5.7c-2.6-3.7-5.1-7.4-7.6-11.2
        c-4.9-7.6-9.5-15.5-13.7-23.5c1.5,1.6,3.1,3.2,4.6,4.7c15.1,15.6,40.2,10.8,51.2-6.6c4-6.3,8-12.6,12-18.8c6.2-9.8,5.6-23,0-32.9
        c-7.9-13.8-14.8-28.1-21.1-42.7c-8.5-21-14.5-42.6-20.3-64.5c-2.9-10.8-6.5-21.4-10.8-31.8c-2.6-6.3-4.9-11.7-8.9-17.1
        c-3.7-5-7.5-10-11.5-14.7c-7-8.4-14.7-16.1-23.1-23.2c0.1-0.2,0.2-0.4,0.4-0.6c2.5-4.3,5.2-8.6,8.1-12.7c0.4-0.5,0.8-1,1.1-1.6
        c1.3-1.6,2.6-3.1,4-4.7c5.7-6.4,11.9-12.1,18.4-17.6c0,0,0.1-0.1,0.1-0.1c1.7-1.3,3.5-2.5,5.3-3.7c3.1-2.1,6.2-4,9.4-5.9
        c5.6-3.2,11.3-6.1,17.2-8.7c9.1-3.6,18.4-6.5,27.8-8.8C485.9,95,494.9,81,495.5,67C495.8,59.8,492.7,52.7,488.5,47.2z
            M390.3,222.9c4.9,11.1,9,22.8,12.2,35l0.6,2.1c5,18.9,10.2,38.5,17.6,57.2c5.8,14.6,12.5,29,19.1,42.9c2.5,4.4,5,8.7,7.5,13.1
        c-4,6.3-8,12.6-12,18.8c-11.8-12.1-23.6-24.3-35.3-36.4c0.4-8.8,0-21.7-4.3-36.4c-5.4-18.5-14.5-31.6-20.7-39.1
        c-16.1-5.8-32.2-11.6-48.4-17.4c-12.6-4.1-25.2-8.3-37.8-12.4c-28.6-5.7-57.1-11.4-85.7-17c18.3,7,36.6,14,54.9,21
        c5.6,6.3,11.1,12.5,16.7,18.8c22.5,9.2,44.9,18.4,67.4,27.5c4.1,40.3,16.6,98.5,54.7,155.1c8.5,12.6,17.3,23.8,26.2,33.7l14,37.3
        c-37-8.4-83.5-23.2-132.8-50.3c-23.8-13.1-44.4-26.9-62-40.2c-16.7-35.8-33.3-71.5-50-107.3l23.7,77.4c-3.3,0.1-6.5,0.5-9.6,1
        c-29.7,4.8-60.2,9-89.7,13.1c-6.2,0.9-12.5,1.7-18.8,2.6c0.2-0.9,0.3-1.8,0.5-2.6c2.6-14.2,5.3-28.9,7.2-43.5
        c2.5-19,3.6-34.7,3.3-49.4c-0.3-14.2-4.6-24.7-6.7-29.7c-0.3-0.6-0.5-1.1-0.6-1.5c-0.7-2-1.2-4.2-1.6-6.7
        c1.2-19.7,6.5-48.6,25.1-76.7c11.9-18,25-29.4,31.8-34.6c42.6-32.7,107.3-39.3,161-16.2C353.8,177.6,377.1,203.6,390.3,222.9z
            M361.2,131.5c-3.3,4.5-6.4,9.3-9.2,14.2c3-13.8,9-31.2,21-48.1c13.9-19.5,28.8-28.1,28.6-28.3c-0.3-0.3-36.3,20.3-52.9,60.8
        c-2.3,5.6-3.9,10.9-5.1,15.6c0.2-11.3,1.9-25.1,7.7-39.6c7.6-19.1,18.1-29.5,17.9-29.6c-0.3-0.2-25.8,24.7-31.3,61.7
        c-0.3,2-0.5,3.9-0.7,5.8c-3.9-2.2-7.9-4.1-12-6c-14.5-6.5-29.8-11-45.3-13.5c-0.1-4.4,0.1-8.9,0.7-13.6
        c2.3-20.5,9.8-33.5,9.6-33.6c-0.3-0.1-11.8,19.7-14.3,46.6c-1.5-0.2-3-0.4-4.5-0.6c-0.4-2.4-0.8-4.8-1.1-7.3
        c-2.3-20.5,2-35,1.8-35c-0.2,0-6,18.4-4.3,41.9c-17.9-1.7-35.9-0.8-53.2,2.6c-1.1-6.9-1.7-14.5-1.3-22.7c1-20.7,7.6-34.1,7.4-34.2
        c-0.3-0.1-12.3,24-11.3,54.2c-3.6-10.8-6.6-24.8-5.8-41c1-20.7,7.6-34.1,7.4-34.2c-0.3-0.1-16.4,32.3-9.8,69.1
        c0.7,4.1,1.7,7.8,2.7,11.2c-22.4,5.8-43.4,15.9-61.2,30.2c-2.9,2.3-6.8,5.7-11.3,10.1c-0.9-0.9-1.7-1.9-2.6-2.9
        c-13.3-15.4-17.7-29.7-17.9-29.6c-0.2,0.1,4.9,17.3,18.2,34.8c-5.5,5.6-11.7,12.7-17.8,21.3c-10.2-6.7-15.6-13-15.7-12.9
        c-0.1,0.1,5.3,6.7,14.8,14.2c-1.5,2.2-3,4.4-4.5,6.8c-11.6,18.3-19.9,38.6-24.6,60.4c-3.3-0.5-6.6-0.8-9.8-0.8
        c-8.4,0-16.6,1.7-24.1,5c-5.7,2.6-10.6,5.9-14.8,9.5c0.7-32.3,7.6-73.2,30.4-114.3c35.6-64,88.9-89.8,111.6-100.8
        c80.1-38.8,155.6-25.5,200.6-17.5c29.9,5.3,59.2,13.9,87.6,25.6C432.1,74.3,390.4,91.5,361.2,131.5z"/>

</svg>
